#!OML:ASF E:\Style4\Style4.ASF
:FULLY-SPECIFIED
:DEGREES
1946
root 1.11289 17.3369 -2.54031 8.61936 -19.1766 3.32979
lowerback 19.3797 1.66341 -2.66422
upperback 11.8721 1.5745 0.615781
thorax 1.88623 0.554427 1.88241
lowerneck 3.82875 -5.10174 -5.66635
upperneck -1.18712 -6.97738 4.13642
head -0.66485 -3.51377 2.3752
rclavicle -1.94809e-014 -7.95139e-016
rhumerus -5.20998 27.544 -64.262
rradius 62.5826
rwrist -56.9454
rhand 17.2798 2.9286
rfingers 7.12502
rthumb 41.9931 -21.6638
lclavicle -1.94809e-014 -7.95139e-016
lhumerus -4.27123 -41.4765 67.2911
lradius 67.495
lwrist 40.4149
lhand 5.12245 27.9102
lfingers 7.12502
lthumb 30.4868 55.4082
rfemur -38.3719 6.99165 11.5663
rtibia 44.4182
rfoot -16.2913 -2.65111
rtoes -12.1407
lfemur -32.1003 8.16179 -26.9957
ltibia 44.3839
lfoot -23.3406 14.0246
ltoes -12.7589
1947
root 1.11059 17.3155 -2.54368 8.50848 -19.1814 3.38538
lowerback 19.4394 1.66292 -2.75938
upperback 11.9078 1.5565 0.575245
thorax 1.89597 0.540957 1.89565
lowerneck 3.80228 -5.09669 -5.59455
upperneck -1.15209 -6.96612 4.1485
head -0.651754 -3.50861 2.36452
rclavicle -3.73715e-014 -1.15295e-014
rhumerus -5.37475 27.7166 -64.2756
rradius 63.0064
rwrist -56.9937
rhand 16.7564 3.11796
rfingers 7.12502
rthumb 41.5023 -21.6367
lclavicle -3.73715e-014 -1.15295e-014
lhumerus -4.178 -42.0871 66.6748
lradius 67.9879
lwrist 40.6431
lhand 5.59762 28.1289
lfingers 7.12502
lthumb 30.9398 55.5418
rfemur -38.4985 6.94297 11.5433
rtibia 44.7919
rfoot -16.4303 -2.61367
rtoes -12.2847
lfemur -32.2159 8.12029 -27.0223
ltibia 44.7814
lfoot -23.6057 13.9683
ltoes -12.3382
1948
root 1.10829 17.2885 -2.54852 8.30189 -19.2054 3.50466
lowerback 19.6031 1.68266 -2.89982
upperback 11.9567 1.55316 0.515347
thorax 1.86715 0.533187 1.90968
lowerneck 3.776 -5.10358 -5.51583
upperneck -1.14956 -6.97004 4.16855
head -0.648137 -3.51103 2.35609
rclavicle 3.61788e-014 -3.18055e-014
rhumerus -5.5251 27.7987 -64.3288
rradius 63.3566
rwrist -57.0721
rhand 16.0609 3.28813
rfingers 7.12502
rthumb 40.8493 -21.676
lclavicle 3.61788e-014 -3.18055e-014
lhumerus -4.0948 -42.5931 66.1102
lradius 68.4687
lwrist 40.8007
lhand 6.40228 28.891
lfingers 7.12502
lthumb 31.7066 56.1554
rfemur -38.5844 6.92629 11.45
rtibia 45.1977
rfoot -16.565 -2.53843
rtoes -11.9926
lfemur -32.288 8.10355 -27.1062
ltibia 45.229
lfoot -23.9059 13.8726
ltoes -11.4944
1949
root 1.10535 17.2669 -2.55158 8.12286 -19.2572 3.4469
lowerback 19.7095 1.69794 -2.79483
upperback 12.0392 1.58309 0.461386
thorax 1.90605 0.553247 1.78692
lowerneck 3.80994 -5.12008 -5.50819
upperneck -1.16429 -6.99166 4.24536
head -0.655124 -3.5231 2.38159
rclavicle 3.97569e-016 1.27222e-014
rhumerus -5.65797 27.7631 -64.4539
rradius 63.5519
rwrist -57.1003
rhand 15.3291 3.53903
rfingers 7.12502
rthumb 40.1614 -21.6381
lclavicle 3.97569e-016 1.27222e-014
lhumerus -3.96446 -43.0633 65.5873
lradius 68.9167
lwrist 41.052
lhand 6.81065 29.5559
lfingers 7.12502
lthumb 32.0954 56.7427
rfemur -38.6354 6.99213 11.5492
rtibia 45.6218
rfoot -16.7265 -2.58058
rtoes -12.2154
lfemur -32.369 8.17517 -27.0118
ltibia 45.7041
lfoot -23.9922 14.0087
ltoes -12.1817
1950
root 1.10103 17.2502 -2.55324 7.95495 -19.2492 3.32807
lowerback 19.7759 1.68359 -2.63316
upperback 12.1309 1.58563 0.413966
thorax 1.97765 0.562207 1.64481
lowerneck 3.89607 -5.124 -5.4724
upperneck -1.20229 -6.99696 4.33422
head -0.679896 -3.52766 2.40854
rclavicle -3.97569e-014 1.47101e-014
rhumerus -5.6741 27.7346 -64.584
rradius 63.5725
rwrist -57.1623
rhand 14.4934 3.7803
rfingers 7.12502
rthumb 39.3745 -21.6314
lclavicle -3.97569e-014 1.47101e-014
lhumerus -3.77319 -43.4035 65.0589
lradius 69.1065
lwrist 41.1022
lhand 7.16452 29.6734
lfingers 7.12502
lthumb 32.4323 56.7917
rfemur -38.6619 7.01999 11.7353
rtibia 46.0564
rfoot -16.8869 -2.66202
rtoes -12.3938
lfemur -32.4225 8.2199 -26.8411
ltibia 46.1604
lfoot -24.0467 14.1216
ltoes -13.1207
1951
root 1.09802 17.2222 -2.55624 7.7757 -19.1976 3.33315
lowerback 19.863 1.65522 -2.65648
upperback 12.1898 1.54179 0.386662
thorax 2.00152 0.538619 1.63591
lowerneck 3.99282 -5.11944 -5.41481
upperneck -1.26297 -6.99166 4.33291
head -0.718132 -3.52579 2.40303
rclavicle 2.38542e-014 -7.95139e-015
rhumerus -5.59333 27.6775 -64.7226
rradius 63.3932
rwrist -57.1903
rhand 13.6065 3.96675
rfingers 7.12502
rthumb 38.5384 -21.6839
lclavicle 2.38542e-014 -7.95139e-015
lhumerus -3.68518 -43.6151 64.7096
lradius 69.1357
lwrist 41.1285
lhand 7.45527 29.6995
lfingers 7.12502
lthumb 32.7089 56.7606
rfemur -38.734 6.96744 11.7847
rtibia 46.4983
rfoot -17.0773 -2.69249
rtoes -12.441
lfemur -32.4369 8.23931 -26.8153
ltibia 46.6052
lfoot -24.3327 13.9688
ltoes -13.7199
1952
root 1.09408 17.1933 -2.5617 7.57203 -19.1976 3.41133
lowerback 19.9442 1.6683 -2.76885
upperback 12.2734 1.53707 0.354289
thorax 2.05262 0.528987 1.66528
lowerneck 3.94644 -5.12408 -5.39835
upperneck -1.24068 -6.99498 4.34835
head -0.702873 -3.52749 2.40287
rclavicle 9.93923e-015 -2.94201e-014
rhumerus -5.44475 27.4301 -64.8948
rradius 63.0845
rwrist -57.0848
rhand 12.6879 4.21178
rfingers 7.12502
rthumb 37.671 -21.6762
lclavicle 9.93923e-015 -2.94201e-014
lhumerus -3.49977 -43.8375 64.3753
lradius 69.0956
lwrist 41.3052
lhand 7.53502 29.6772
lfingers 7.12502
lthumb 32.7848 56.7226
rfemur -38.8078 6.98521 11.7455
rtibia 46.924
rfoot -17.3168 -2.68791
rtoes -12.5736
lfemur -32.4361 8.28916 -26.8575
ltibia 47.0424
lfoot -24.6902 13.6542
ltoes -13.8232
1953
root 1.09119 17.1739 -2.56604 7.3733 -19.189 3.33622
lowerback 20.0737 1.66533 -2.73074
upperback 12.3577 1.53335 0.364219
thorax 2.0818 0.526475 1.6537
lowerneck 3.82372 -5.12455 -5.38649
upperneck -1.11222 -6.99152 4.33088
head -0.642138 -3.52501 2.38722
rclavicle -5.56597e-015 -3.97569e-015
rhumerus -5.28212 27.1042 -65.0999
rradius 62.6868
rwrist -56.9614
rhand 11.8444 4.47355
rfingers 7.12502
rthumb 36.8735 -21.6235
lclavicle -5.56597e-015 -3.97569e-015
lhumerus -3.22379 -43.9938 64.0464
lradius 68.9024
lwrist 41.4144
lhand 7.64398 29.7298
lfingers 7.12502
lthumb 32.8885 56.7535
rfemur -38.7856 7.03443 11.875
rtibia 47.3173
rfoot -17.5287 -2.74018
rtoes -12.6222
lfemur -32.4791 8.33108 -26.7219
ltibia 47.5003
lfoot -24.9051 13.5391
ltoes -13.4131
1954
root 1.08894 17.158 -2.56759 7.19547 -19.1643 3.24458
lowerback 20.1666 1.64509 -2.69275
upperback 12.4345 1.50907 0.384303
thorax 2.12162 0.513375 1.65723
lowerneck 3.73313 -5.11868 -5.35603
upperneck -1.01191 -6.98042 4.27818
head -0.598193 -3.51849 2.35871
rclavicle 1.19271e-015 -1.27222e-014
rhumerus -5.04734 26.7718 -65.2951
rradius 62.1444
rwrist -56.8032
rhand 10.8713 4.79223
rfingers 7.12502
rthumb 35.9523 -21.536
lclavicle 1.19271e-015 -1.27222e-014
lhumerus -2.98687 -43.9577 63.8332
lradius 68.5661
lwrist 41.3494
lhand 7.92335 29.9886
lfingers 7.12502
lthumb 33.1541 56.9562
rfemur -38.7396 7.02713 12.025
rtibia 47.6738
rfoot -17.6917 -2.73398
rtoes -12.4514
lfemur -32.5872 8.3667 -26.5823
ltibia 47.9635
lfoot -24.944 13.7202
ltoes -13.1273
1955
root 1.085 17.1332 -2.56954 7.05647 -19.1361 3.22156
lowerback 20.1832 1.64131 -2.70047
upperback 12.4992 1.50192 0.389102
thorax 2.18514 0.507123 1.66841
lowerneck 3.80639 -5.09741 -5.40675
upperneck -1.06286 -6.95643 4.31583
head -0.625216 -3.50719 2.3839
rclavicle -9.14409e-015 4.65156e-014
rhumerus -4.77149 26.323 -65.5109
rradius 61.4441
rwrist -56.5355
rhand 9.86966 5.30789
rfingers 7.12502
rthumb 35.0027 -21.2475
lclavicle -9.14409e-015 4.65156e-014
lhumerus -2.76613 -43.8567 63.7935
lradius 68.016
lwrist 41.0649
lhand 8.23075 29.9954
lfingers 7.12502
lthumb 33.4464 56.9003
rfemur -38.7708 7.02612 12.0806
rtibia 48.0095
rfoot -17.8557 -2.67519
rtoes -12.0979
lfemur -32.6781 8.3899 -26.5266
ltibia 48.423
lfoot -25.1634 13.6603
ltoes -12.9327
